<mxfile host="Electron" modified="2024-06-19T11:48:47.922Z" agent="Mozilla/5.0 (Windows NT 10.0; Win64; x64) AppleWebKit/537.36 (KHTML, like Gecko) draw.io/21.2.8 Chrome/112.0.5615.165 Electron/24.2.0 Safari/537.36" etag="tcm1ZtKxud2KoBMEg0TZ" version="21.2.8" type="device">
  <diagram name="Page-1" id="MjZs7eSbd_o9cky2mDcZ">
    <mxGraphModel dx="2074" dy="1204" grid="1" gridSize="10" guides="1" tooltips="1" connect="1" arrows="1" fold="1" page="1" pageScale="1" pageWidth="827" pageHeight="1169" math="0" shadow="0">
      <root>
        <mxCell id="0" />
        <mxCell id="1" parent="0" />
        <mxCell id="n13EizVaecZjFucuTO95-17" value="" style="group" vertex="1" connectable="0" parent="1">
          <mxGeometry x="190" y="240" width="810" height="560" as="geometry" />
        </mxCell>
        <mxCell id="n13EizVaecZjFucuTO95-1" value="" style="rounded=0;whiteSpace=wrap;html=1;" vertex="1" parent="n13EizVaecZjFucuTO95-17">
          <mxGeometry x="490" y="40" width="320" height="520" as="geometry" />
        </mxCell>
        <mxCell id="n13EizVaecZjFucuTO95-2" value="&lt;font style=&quot;font-size: 27px;&quot;&gt;FILEBIN&lt;/font&gt;" style="text;html=1;strokeColor=none;fillColor=none;align=center;verticalAlign=middle;whiteSpace=wrap;rounded=0;" vertex="1" parent="n13EizVaecZjFucuTO95-17">
          <mxGeometry x="510" width="60" height="30" as="geometry" />
        </mxCell>
        <mxCell id="n13EizVaecZjFucuTO95-3" value="" style="ellipse;shape=cloud;whiteSpace=wrap;html=1;" vertex="1" parent="n13EizVaecZjFucuTO95-17">
          <mxGeometry y="125" width="240" height="240" as="geometry" />
        </mxCell>
        <mxCell id="n13EizVaecZjFucuTO95-4" value="" style="shape=flexArrow;endArrow=classic;startArrow=classic;html=1;rounded=0;exitX=0.875;exitY=0.5;exitDx=0;exitDy=0;exitPerimeter=0;entryX=0.009;entryY=0.394;entryDx=0;entryDy=0;entryPerimeter=0;" edge="1" parent="n13EizVaecZjFucuTO95-17" source="n13EizVaecZjFucuTO95-3" target="n13EizVaecZjFucuTO95-1">
          <mxGeometry width="100" height="100" relative="1" as="geometry">
            <mxPoint x="260" y="290" as="sourcePoint" />
            <mxPoint x="420" y="250" as="targetPoint" />
          </mxGeometry>
        </mxCell>
        <mxCell id="n13EizVaecZjFucuTO95-5" value="&lt;font style=&quot;font-size: 29px;&quot;&gt;USERS&lt;/font&gt;" style="text;html=1;strokeColor=none;fillColor=none;align=center;verticalAlign=middle;whiteSpace=wrap;rounded=0;" vertex="1" parent="n13EizVaecZjFucuTO95-17">
          <mxGeometry x="74" y="230" width="60" height="30" as="geometry" />
        </mxCell>
        <mxCell id="n13EizVaecZjFucuTO95-6" value="&lt;h1&gt;FUNCTIONALITIES&lt;/h1&gt;&lt;p&gt;- APIs&lt;/p&gt;&lt;p&gt;&lt;span style=&quot;white-space: pre;&quot;&gt;	&lt;/span&gt;- Share&lt;br&gt;&lt;/p&gt;&lt;p&gt;&lt;span style=&quot;white-space: pre;&quot;&gt;	&lt;/span&gt;- Upload/download&lt;br&gt;&lt;/p&gt;&lt;p&gt;&lt;span style=&quot;white-space: pre;&quot;&gt;	&lt;/span&gt;- Register&lt;br&gt;&lt;/p&gt;" style="text;html=1;strokeColor=none;fillColor=none;spacing=5;spacingTop=-20;whiteSpace=wrap;overflow=hidden;rounded=0;" vertex="1" parent="n13EizVaecZjFucuTO95-17">
          <mxGeometry x="490" y="40" width="320" height="520" as="geometry" />
        </mxCell>
        <mxCell id="n13EizVaecZjFucuTO95-26" value="" style="group" vertex="1" connectable="0" parent="1">
          <mxGeometry x="269" y="840" width="1151" height="570" as="geometry" />
        </mxCell>
        <mxCell id="n13EizVaecZjFucuTO95-16" value="" style="group" vertex="1" connectable="0" parent="n13EizVaecZjFucuTO95-26">
          <mxGeometry x="411" width="320" height="570" as="geometry" />
        </mxCell>
        <mxCell id="n13EizVaecZjFucuTO95-9" value="" style="rounded=0;whiteSpace=wrap;html=1;" vertex="1" parent="n13EizVaecZjFucuTO95-16">
          <mxGeometry y="30" width="320" height="540" as="geometry" />
        </mxCell>
        <mxCell id="n13EizVaecZjFucuTO95-7" value="&lt;font style=&quot;font-size: 18px;&quot;&gt;Share API&lt;/font&gt;" style="rounded=0;whiteSpace=wrap;html=1;fillColor=#dae8fc;strokeColor=#6c8ebf;" vertex="1" parent="n13EizVaecZjFucuTO95-16">
          <mxGeometry y="30" width="320" height="180" as="geometry" />
        </mxCell>
        <mxCell id="n13EizVaecZjFucuTO95-10" value="&lt;font style=&quot;font-size: 27px;&quot;&gt;FILEBIN&lt;/font&gt;" style="text;html=1;strokeColor=none;fillColor=none;align=center;verticalAlign=middle;whiteSpace=wrap;rounded=0;" vertex="1" parent="n13EizVaecZjFucuTO95-16">
          <mxGeometry x="20" width="60" height="30" as="geometry" />
        </mxCell>
        <mxCell id="n13EizVaecZjFucuTO95-14" value="&lt;font style=&quot;font-size: 18px;&quot;&gt;Upload/download API&lt;/font&gt;" style="rounded=0;whiteSpace=wrap;html=1;fillColor=#d5e8d4;strokeColor=#82b366;" vertex="1" parent="n13EizVaecZjFucuTO95-16">
          <mxGeometry y="210" width="320" height="180" as="geometry" />
        </mxCell>
        <mxCell id="n13EizVaecZjFucuTO95-15" value="&lt;font style=&quot;font-size: 18px;&quot;&gt;Register and login API&lt;/font&gt;" style="rounded=0;whiteSpace=wrap;html=1;fillColor=#ffe6cc;strokeColor=#d79b00;" vertex="1" parent="n13EizVaecZjFucuTO95-16">
          <mxGeometry y="390" width="320" height="180" as="geometry" />
        </mxCell>
        <mxCell id="n13EizVaecZjFucuTO95-18" value="&lt;font style=&quot;font-size: 24px;&quot;&gt;Singular MSSQL server&lt;/font&gt;" style="shape=cylinder3;whiteSpace=wrap;html=1;boundedLbl=1;backgroundOutline=1;size=15;" vertex="1" parent="n13EizVaecZjFucuTO95-26">
          <mxGeometry x="951" y="185" width="200" height="230" as="geometry" />
        </mxCell>
        <mxCell id="n13EizVaecZjFucuTO95-21" style="edgeStyle=orthogonalEdgeStyle;rounded=0;orthogonalLoop=1;jettySize=auto;html=1;" edge="1" parent="n13EizVaecZjFucuTO95-26" source="n13EizVaecZjFucuTO95-14" target="n13EizVaecZjFucuTO95-18">
          <mxGeometry relative="1" as="geometry" />
        </mxCell>
        <mxCell id="n13EizVaecZjFucuTO95-22" style="edgeStyle=orthogonalEdgeStyle;rounded=0;orthogonalLoop=1;jettySize=auto;html=1;" edge="1" parent="n13EizVaecZjFucuTO95-26" source="n13EizVaecZjFucuTO95-15" target="n13EizVaecZjFucuTO95-18">
          <mxGeometry relative="1" as="geometry" />
        </mxCell>
        <mxCell id="n13EizVaecZjFucuTO95-23" style="edgeStyle=orthogonalEdgeStyle;rounded=0;orthogonalLoop=1;jettySize=auto;html=1;" edge="1" parent="n13EizVaecZjFucuTO95-26" source="n13EizVaecZjFucuTO95-7" target="n13EizVaecZjFucuTO95-18">
          <mxGeometry relative="1" as="geometry" />
        </mxCell>
        <mxCell id="n13EizVaecZjFucuTO95-24" value="&lt;font style=&quot;font-size: 24px;&quot;&gt;FILE STORAGE&lt;/font&gt;" style="shape=cube;whiteSpace=wrap;html=1;boundedLbl=1;backgroundOutline=1;darkOpacity=0.05;darkOpacity2=0.1;" vertex="1" parent="n13EizVaecZjFucuTO95-26">
          <mxGeometry y="185" width="290" height="230" as="geometry" />
        </mxCell>
        <mxCell id="n13EizVaecZjFucuTO95-25" style="edgeStyle=orthogonalEdgeStyle;rounded=0;orthogonalLoop=1;jettySize=auto;html=1;" edge="1" parent="n13EizVaecZjFucuTO95-26" source="n13EizVaecZjFucuTO95-14" target="n13EizVaecZjFucuTO95-24">
          <mxGeometry relative="1" as="geometry" />
        </mxCell>
      </root>
    </mxGraphModel>
  </diagram>
</mxfile>
